<mxfile host="app.diagrams.net" modified="2023-12-05T11:05:07.454Z" agent="Mozilla/5.0 (Windows NT 10.0; Win64; x64) AppleWebKit/537.36 (KHTML, like Gecko) Chrome/119.0.0.0 Safari/537.36" version="22.1.5" etag="NqdD9JJ_1B9wIpJysTXo" type="github">
  <diagram name="Page-1" id="DiNCqpYcXGzgNlcvzQKN">
    <mxGraphModel>
      <root>
        <mxCell id="0" />
        <mxCell id="1" parent="0" />
      </root>
    </mxGraphModel>
  </diagram>
</mxfile>
